<?xml version="1.0" encoding="utf-8"?>
<!-- Generator: Adobe Illustrator 14.0.0, SVG Export Plug-In . SVG Version: 6.00 Build 43363)  -->
<!DOCTYPE svg PUBLIC "-//W3C//DTD SVG 1.1//EN" "http://www.w3.org/Graphics/SVG/1.1/DTD/svg11.dtd">
<svg version="1.1" id="Calque_1" xmlns="http://www.w3.org/2000/svg" xmlns:xlink="http://www.w3.org/1999/xlink" x="0px" y="0px"
	 width="48px" height="35px" viewBox="0 0 48 35" enable-background="new 0 0 48 35" xml:space="preserve">
<path fill="#BDD027" d="M16.801,29.496c0.249,0.598-0.461-0.27-0.536-0.361c-0.456-0.574-0.985-1.223-1.271-1.904l-0.146-0.365
	l-0.667,0.018c-1.367,0.012-2.733-0.062-4.084-0.23c-0.368-0.047-0.736-0.098-1.104-0.156c0.182,0.453,0.364,0.9,0.545,1.338
	c0.249,0.6-0.461-0.266-0.536-0.359c-0.278-0.352-0.578-0.73-0.838-1.125c-2.379-0.443-4.735-1.168-6.884-2.279
	C3.878,30.479,10.159,35,17.5,35c9.444,0,17.135-7.48,17.483-16.838c-4.947,5.295-12.032,8.225-19.237,8.658l0.137,0.389
	C16.184,27.992,16.495,28.756,16.801,29.496"/>
<path fill="#FFFFFF" d="M29.6,5.99c1.26,1.214,1.627,2.55,1.971,4.441c3.486,2.433,3.031,5.047,2.836,6.562
	c0.25-0.07,0.893-0.184,1.84-0.179c0.434-0.843,1.371-1.5,2.564-1.916c1.193-0.417,1.176-0.892,3.045-1.646
	c0.303-1.181,1.654-1.877,2.627-1.954c0.67-1.492,2.332-2.668,3.518-2.9c-6.109-0.169-6.34,1.611-7.18,2.827
	c0.07-0.203,0.207-1.308,0.188-1.37c-0.016-0.065-1.1,1.038-1.545,1.345c-0.301-0.22-0.791-0.305-1.035-0.358
	c0,0-0.104-0.396-0.148-0.769c-0.059-0.498,0.145-1.271-0.129-1.16c-0.521,0.21-1.26,2.658-1.26,2.658L36.555,11.7
	c-0.027-0.29-1.018-4.559-1.068-4.788s-0.691-1.866-1.293-2.699C33.596,3.382,31.27,1.643,28.363,0
	C29.482,1.577,29.807,4.292,29.6,5.99"/>
<path fill="#BDD027" d="M28.432,3.796c-2.993-2.374-6.781-3.792-10.901-3.792C7.849,0.004,0,7.837,0,17.5
	c0,1.298,0.145,2.562,0.414,3.781c0.147,0.07,0.294,0.141,0.442,0.207c1.906,0.848,3.918,1.445,5.972,1.828l-0.33-0.824
	c-0.422-1.115-0.851-2.416-1.228-3.75l-3.856,0.369l1.393-1.548l2.062-0.332c-0.27-1.104-0.484-2.191-0.609-3.174
	c-0.152-1.208,0.054-3.424,0.336-4.734c0.021-0.088,0.04-0.178,0.061-0.267c0.721-2.89,2.58-4.905,5.136-6.324
	c0.32-0.178,2.062,2.688,1.941,2.754c-2.36,1.31-4.286,3.192-5.016,5.865c-0.124,0.453-0.219,0.91-0.294,1.37l-0.178,1.914
	c-0.024,0.781,0.017,1.569,0.098,2.357l3.739-0.602l-1.586,2.039l-1.929,0.186c0.229,1.291,0.563,2.578,0.96,3.838L7.897,23.5
	l0.339,0.053c1.166,0.156,2.34,0.242,3.513,0.258c0.399,0.006,0.8,0.002,1.199-0.006l0.677-0.025
	c-0.377-1.029-0.755-2.188-1.091-3.377l-3.857,0.369l1.393-1.547l2.062-0.332c-0.27-1.104-0.485-2.191-0.608-3.173
	c-0.153-1.208,0.053-3.424,0.335-4.735c0.021-0.088,0.04-0.178,0.062-0.266c0.721-2.891,2.58-4.906,5.136-6.325
	c0.32-0.178,2.062,2.688,1.941,2.755c-2.36,1.309-4.285,3.192-5.016,5.864c-0.123,0.452-0.219,0.91-0.293,1.371l-0.179,1.913
	c-0.023,0.781,0.018,1.569,0.098,2.357l3.739-0.602l-1.586,2.039l-1.929,0.186c0.205,1.156,0.498,2.307,0.84,3.438
	c1.577-0.117,3.144-0.342,4.68-0.688c-0.372-0.857-0.699-1.879-0.707-1.879c2.152-0.473,4.352-0.957,6.404-1.777
	c0.605-0.242,1.373-0.518,1.947-0.955c-0.416-0.182-0.84-0.344-1.266-0.498c-1.971-0.709-4.26-0.997-5.381-2.958
	c-0.595-1.044-1.59-2.613-1.091-3.871c0.581-1.465,1.918-2.455,3.349-3.016c0.321-0.125,1.646,2.96,1.496,3.019
	c-1.092,0.428-2.711,1.394-3.259,2.649c0.206,0.079,0.409,0.157,0.619,0.228c0.387,0.128,0.773,0.254,1.16,0.38
	c1.5,0.492,3.298,0.949,4.542,1.975c0.818,0.674,1.297,1.761,1.705,2.722c1.633-1.069,3.141-2.336,4.51-3.775
	c-0.016-0.426-0.088-0.871-0.271-1.33l-1.545-1.98c-0.18-0.15-0.371-0.3-0.588-0.451l-0.445-0.31l-0.098-0.535
	c-0.332-1.84-0.641-2.815-1.586-3.728l-0.473-0.455l0.078-0.651C28.521,5.25,28.51,4.501,28.432,3.796"/>
</svg>
